<svg width="701" height="409" viewBox="0 0 701 409" fill="none" xmlns="http://www.w3.org/2000/svg">
<path d="M70.0087 388.606L48.0026 388.996L36.8344 389.153C33.1022 389.219 29.3515 389.205 25.6093 389.23L24.8648 389.235L24.8615 388.606L24.7709 372.932L24.7676 372.228L25.6093 372.231L47.8081 372.32C55.2072 372.327 62.6079 372.478 70.007 372.549L70.4697 372.553L70.4647 372.932C70.4328 375.592 70.3205 378.236 70.2451 380.851L70.0087 388.606ZM70.0087 388.606L69.7706 380.686C69.6951 378.076 69.5828 375.496 69.5509 372.932L70.0087 373.314C62.6096 373.385 55.2089 373.537 47.8098 373.544L25.6109 373.632L26.4476 372.933L26.357 388.607L25.6109 387.982C29.2694 388.008 32.9178 387.993 36.5863 388.059L47.617 388.216L70.0087 388.606Z" fill="#A6A6A6" fill-opacity="0.1"/>
<path d="M45.2411 408.37L23.235 408.76L12.0669 408.917C8.33463 408.983 4.58396 408.969 0.841677 408.994L0.0972435 409L0.0938921 408.371L0.00335146 392.697L0 391.994L0.841677 391.997L23.0405 392.085C30.4396 392.092 37.8403 392.243 45.2394 392.315L45.7022 392.319L45.6971 392.697C45.6653 395.357 45.5529 398.002 45.4775 400.617L45.2411 408.37ZM45.2411 408.37L45.003 400.45C44.9276 397.841 44.8152 395.26 44.7834 392.696L45.2411 393.078C37.842 393.15 30.4413 393.301 23.0422 393.308L0.843353 393.396L1.68 392.697L1.58946 408.371L0.841677 407.746C4.50013 407.772 8.14853 407.758 11.817 407.823L22.8477 407.98L45.2411 408.37Z" fill="#A6A6A6" fill-opacity="0.1"/>
<path d="M700.539 408.37L678.533 408.76L667.365 408.917C663.632 408.983 659.882 408.969 656.14 408.994L655.395 409L655.392 408.371L655.301 392.697L655.298 391.994L656.14 391.997L678.338 392.085C685.737 392.092 693.138 392.243 700.537 392.315L701 392.319L700.995 392.697C700.963 395.357 700.851 398.002 700.775 400.617L700.539 408.37ZM700.539 408.37L700.301 400.45C700.225 397.841 700.113 395.26 700.081 392.696L700.539 393.078C693.14 393.15 685.739 393.301 678.34 393.308L656.141 393.396L656.978 392.697L656.887 408.371L656.141 407.746C659.8 407.772 663.448 407.758 667.117 407.823L678.147 407.98L700.539 408.37Z" fill="#A6A6A6" fill-opacity="0.1"/>
<path d="M675.771 25.3757L653.765 25.7665L642.597 25.9234C638.865 25.9893 635.114 25.9753 631.372 26.0005L630.628 26.0061L630.624 25.3771L630.534 9.70316L630.53 9L631.372 9.00281L653.571 9.09105C660.97 9.09805 668.371 9.24793 675.77 9.32076L676.232 9.32497L676.227 9.70316C676.196 12.3631 676.083 15.0077 676.008 17.6228L675.771 25.3757ZM675.771 25.3757L675.533 17.4561C675.458 14.8466 675.346 12.2665 675.314 9.70176L675.771 10.0842C668.372 10.1556 660.972 10.3069 653.573 10.3139L631.374 10.4021L632.21 9.70316L632.12 25.3771L631.372 24.7524C635.03 24.7776 638.679 24.7636 642.347 24.8295L653.378 24.9863L675.771 25.3757Z" fill="#A6A6A6" fill-opacity="0.1"/>
<path d="M700.539 45.1397L678.533 45.5305L667.365 45.6874C663.632 45.7532 659.882 45.7392 656.14 45.7644L655.395 45.7686L655.392 45.1397L655.301 29.4657L655.298 28.7626L656.14 28.7654L678.338 28.8536C685.737 28.8606 693.138 29.0119 700.537 29.0833L701 29.0875L700.995 29.4657C700.963 32.1257 700.851 34.7702 700.775 37.3854L700.539 45.1397ZM700.539 45.1397L700.301 37.2201C700.225 34.6106 700.113 32.0304 700.081 29.4657L700.539 29.8481C693.14 29.9196 685.739 30.0708 678.34 30.0778L656.141 30.1661L656.978 29.4671L656.887 45.1411L656.141 44.5164C659.8 44.5416 663.448 44.5276 667.117 44.5934L678.147 44.7503L700.539 45.1397Z" fill="#A6A6A6" fill-opacity="0.1"/>
<path d="M47.2394 16.3771L25.2334 16.7679L14.0652 16.9248C10.333 16.9907 6.58229 16.9766 2.84 17.0019L2.09557 17.0075L2.09389 16.3771L2.00335 0.703156L2 0L2.84168 0.00279989L25.0405 0.0910498C32.4396 0.0980533 39.8403 0.247926 47.2394 0.320763L47.7022 0.324969L47.6971 0.703156C47.6653 3.36311 47.5529 6.00766 47.4775 8.62279L47.2394 16.3771ZM47.2394 16.3771L47.0013 8.45751C46.9259 5.84798 46.8135 3.26786 46.7817 0.703156L47.2394 1.08555C39.8403 1.15699 32.4396 1.30826 25.0405 1.31527L2.84168 1.40351L3.67833 0.704562L3.58779 16.3771L2.84168 15.7524C6.50013 15.7776 10.1485 15.7636 13.817 15.8295L24.8477 15.9863L47.2394 16.3771Z" fill="#A6A6A6" fill-opacity="0.1"/>
<path d="M454 125.918L499.408 129.844L502 99.471L456.592 95.5454L454 125.918Z" fill="#EBEBEB"/>
<path d="M456.048 124.189L497.686 127.789L499.951 101.199L458.313 97.5994L456.048 124.189Z" fill="white"/>
<path d="M461.381 106.216C461.165 108.717 463.018 110.921 465.52 111.138C468.022 111.354 470.226 109.501 470.442 106.999C470.658 104.497 468.805 102.293 466.303 102.077C463.801 101.86 461.598 103.713 461.381 106.216Z" fill="#DBDBDB"/>
<path d="M468.973 125.349L497.655 127.828L484.994 107.15L468.973 125.349Z" fill="#EBEBEB"/>
<path d="M457.729 124.386L481.409 126.433L470.664 112.751L457.729 124.386Z" fill="#DBDBDB"/>
<path d="M184.015 165.581L325.015 143.287L310 49L169 71.2936L184.015 165.581Z" fill="#EBEBEB"/>
<path d="M188.938 158.782L318.232 138.34L305.076 55.7984L175.781 76.2414L188.938 158.782Z" fill="#DBDBDB"/>
<path d="M191.603 100.121C192.831 107.891 200.125 113.192 207.895 111.965C215.665 110.735 220.967 103.441 219.739 95.6718C218.512 87.9021 211.216 82.6008 203.447 83.8286C195.677 85.0577 190.376 92.3518 191.603 100.121Z" fill="#C7C7C7"/>
<path d="M229.105 152.564L318.168 138.483L264.094 85.1622L229.105 152.564Z" fill="#A6A6A6"/>
<path d="M194.197 158.113L267.728 146.486L224.749 112.994L194.197 158.113Z" fill="#C7C7C7"/>
<path d="M331.837 185.696L424.421 193.701L429.706 131.773L337.122 123.769L331.837 185.696Z" fill="#EBEBEB"/>
<path d="M336.013 182.172L420.911 189.512L425.529 135.297L340.632 127.957L336.013 182.172Z" fill="white"/>
<path d="M346.888 145.525C346.447 150.626 350.225 155.119 355.326 155.561C360.428 156.002 364.921 152.224 365.362 147.122C365.803 142.021 362.025 137.527 356.923 137.086C351.822 136.645 347.329 140.423 346.888 145.525Z" fill="#DBDBDB"/>
<path d="M362.366 184.536L420.847 189.592L395.033 147.43L362.366 184.536Z" fill="#EBEBEB"/>
<path d="M339.441 182.573L387.723 186.747L365.813 158.851L339.441 182.573Z" fill="#DBDBDB"/>
<path d="M254.672 252.248L262.218 272.546L258.37 271.711L256.123 277.157L250.6 275.244L246.808 284.67L234.621 278.445L230.419 286.492L225.513 284.512L220.058 294.542L214.119 290.698L202.102 258.376L237.879 245.074L254.672 252.248Z" fill="#C8C8C8"/>
<path d="M237.88 245.075L254.672 252.249L242.262 256.864L237.88 245.075Z" fill="#DBDBDB"/>
<path d="M263.676 276.632L274.751 306.407L226.56 324.326L215.579 294.788L221.515 298.628L226.974 288.595L231.876 290.578L236.085 282.532L248.268 288.76L252.064 279.332L257.58 281.243L259.834 275.799L263.676 276.632Z" fill="#C8C8C8"/>
<path d="M234.311 232.083C233.918 230.735 233.831 229.388 233.815 228.041C233.831 226.694 233.921 225.347 234.319 224C234.714 225.348 234.801 226.695 234.815 228.042C234.796 229.389 234.706 230.736 234.311 232.083Z" fill="#C8C8C8"/>
<path d="M226.082 234.455C225.068 233.484 224.319 232.361 223.633 231.202C222.973 230.027 222.378 228.816 222.05 227.451C223.066 228.421 223.815 229.544 224.5 230.704C225.156 231.879 225.751 233.091 226.082 234.455Z" fill="#C8C8C8"/>
<path d="M220.14 240.625C218.777 240.292 217.567 239.693 216.393 239.033C215.235 238.346 214.114 237.594 213.147 236.576C214.511 236.908 215.721 237.506 216.894 238.168C218.051 238.858 219.172 239.609 220.14 240.625Z" fill="#C8C8C8"/>
<path d="M218.079 248.94C216.732 249.333 215.385 249.42 214.039 249.436C212.692 249.42 211.346 249.33 210 248.932C211.347 248.537 212.694 248.45 214.04 248.436C215.386 248.455 216.733 248.545 218.079 248.94Z" fill="#C8C8C8"/>
<path d="M220.45 257.173C219.48 258.187 218.357 258.936 217.199 259.623C216.025 260.283 214.814 260.878 213.449 261.207C214.418 260.191 215.541 259.442 216.7 258.757C217.875 258.099 219.086 257.504 220.45 257.173Z" fill="#C8C8C8"/>
<path d="M226.617 263.117C226.284 264.48 225.686 265.691 225.026 266.865C224.339 268.024 223.588 269.145 222.57 270.113C222.901 268.748 223.499 267.538 224.161 266.365C224.85 265.207 225.602 264.085 226.617 263.117Z" fill="#C8C8C8"/>
<path d="M234.929 265.179C235.322 266.527 235.409 267.874 235.425 269.221C235.409 270.568 235.319 271.915 234.921 273.262C234.526 271.914 234.439 270.567 234.425 269.22C234.444 267.873 234.534 266.526 234.929 265.179Z" fill="#C8C8C8"/>
<path d="M243.159 262.807C244.173 263.778 244.922 264.901 245.608 266.06C246.267 267.235 246.863 268.446 247.191 269.812C246.175 268.842 245.426 267.719 244.741 266.559C244.084 265.383 243.489 264.171 243.159 262.807Z" fill="#C8C8C8"/>
<path d="M249.1 256.637C250.463 256.97 251.673 257.569 252.847 258.229C254.005 258.916 255.126 259.668 256.093 260.686C254.729 260.354 253.519 259.756 252.346 259.094C251.189 258.405 250.068 257.653 249.1 256.637Z" fill="#C8C8C8"/>
<path d="M251.161 248.322C252.508 247.929 253.855 247.842 255.201 247.826C256.548 247.842 257.894 247.932 259.24 248.33C257.893 248.725 256.546 248.812 255.2 248.826C253.854 248.807 252.507 248.717 251.161 248.322Z" fill="#C8C8C8"/>
<path d="M248.79 240.089C249.76 239.075 250.883 238.326 252.041 237.639C253.215 236.979 254.426 236.384 255.791 236.055C254.822 237.071 253.699 237.82 252.54 238.505C251.365 239.163 250.154 239.758 248.79 240.089Z" fill="#C8C8C8"/>
<path d="M242.623 234.146C242.956 232.782 243.554 231.572 244.214 230.398C244.901 229.239 245.652 228.118 246.67 227.15C246.339 228.515 245.741 229.725 245.079 230.898C244.39 232.055 243.639 233.177 242.623 234.146Z" fill="#C8C8C8"/>
<path d="M533.311 273.658L526.882 294.336L524.346 291.324L519.239 294.262L516.036 289.373L507.275 294.518L501.432 282.143L493.188 285.946L490.514 281.38L480.067 285.987L477.715 279.315L487.952 246.386L524.402 257.718L533.311 273.658Z" fill="#C8C8C8"/>
<path d="M524.401 257.718L533.31 273.658L520.666 269.728L524.401 257.718Z" fill="#DBDBDB"/>
<path d="M525.539 298.461L516.112 328.799L467.015 313.537L476.371 283.445L478.724 290.112L489.175 285.506L491.845 290.071L500.093 286.273L505.931 298.648L514.697 293.504L517.896 298.387L523.006 295.454L525.539 298.461Z" fill="#C8C8C8"/>
<path d="M529.514 245.254C530.027 243.946 530.781 242.827 531.591 241.751C532.427 240.694 533.321 239.683 534.46 238.86C533.949 240.168 533.194 241.288 532.382 242.363C531.544 243.417 530.65 244.429 529.514 245.254Z" fill="#C8C8C8"/>
<path d="M521.551 242.103C521.341 240.715 521.435 239.368 521.6 238.031C521.795 236.698 522.064 235.376 522.639 234.095C522.85 235.484 522.757 236.83 522.59 238.167C522.392 239.498 522.122 240.821 521.551 242.103Z" fill="#C8C8C8"/>
<path d="M513.077 243.356C512.202 242.26 511.61 241.046 511.084 239.806C510.587 238.555 510.159 237.275 510.016 235.878C510.893 236.974 511.485 238.187 512.009 239.428C512.503 240.681 512.932 241.961 513.077 243.356Z" fill="#C8C8C8"/>
<path d="M506.365 248.679C505.058 248.167 503.939 247.413 502.864 246.603C501.807 245.767 500.797 244.874 499.974 243.736C501.282 244.247 502.401 245.001 503.475 245.812C504.529 246.65 505.541 247.544 506.365 248.679Z" fill="#C8C8C8"/>
<path d="M503.211 256.645C501.823 256.855 500.477 256.762 499.14 256.598C497.808 256.403 496.486 256.134 495.204 255.561C496.592 255.348 497.939 255.442 499.275 255.608C500.607 255.805 501.929 256.074 503.211 256.645Z" fill="#C8C8C8"/>
<path d="M504.461 265.119C503.365 265.994 502.152 266.587 500.912 267.113C499.66 267.611 498.38 268.04 496.983 268.184C498.079 267.306 499.292 266.713 500.533 266.189C501.786 265.693 503.066 265.265 504.461 265.119Z" fill="#C8C8C8"/>
<path d="M509.781 271.83C509.268 273.137 508.514 274.257 507.704 275.333C506.868 276.389 505.974 277.4 504.835 278.224C505.346 276.915 506.101 275.796 506.913 274.721C507.751 273.666 508.645 272.655 509.781 271.83Z" fill="#C8C8C8"/>
<path d="M517.745 274.981C517.954 276.369 517.861 277.716 517.696 279.053C517.5 280.385 517.232 281.708 516.657 282.99C516.445 281.601 516.538 280.255 516.705 278.918C516.903 277.585 517.173 276.262 517.745 274.981Z" fill="#C8C8C8"/>
<path d="M526.218 273.727C527.093 274.824 527.685 276.037 528.211 277.277C528.708 278.528 529.136 279.809 529.279 281.205C528.402 280.109 527.81 278.896 527.286 277.656C526.791 276.403 526.363 275.123 526.218 273.727Z" fill="#C8C8C8"/>
<path d="M532.93 268.404C534.237 268.916 535.356 269.67 536.431 270.48C537.488 271.316 538.498 272.21 539.321 273.347C538.013 272.837 536.894 272.083 535.82 271.271C534.766 270.434 533.754 269.539 532.93 268.404Z" fill="#C8C8C8"/>
<path d="M536.084 260.438C537.471 260.228 538.818 260.322 540.154 260.485C541.487 260.68 542.809 260.949 544.091 261.523C542.703 261.735 541.356 261.642 540.02 261.476C538.688 261.279 537.366 261.01 536.084 260.438Z" fill="#C8C8C8"/>
<path d="M534.834 251.966C535.931 251.089 537.143 250.497 538.383 249.971C539.635 249.473 540.915 249.045 542.312 248.9C541.216 249.779 540.003 250.371 538.762 250.895C537.51 251.39 536.23 251.819 534.834 251.966Z" fill="#C8C8C8"/>
<path d="M405 390.448L547.698 404.244L556.819 308.795L414.122 295L405 390.448Z" fill="#EBEBEB"/>
<path d="M411.497 385.078L542.349 397.729L550.321 314.166L419.47 301.515L411.497 385.078Z" fill="white"/>
<path d="M428.846 328.714C428.086 336.577 433.843 343.567 441.706 344.327C449.569 345.087 456.56 339.329 457.32 331.466C458.08 323.603 452.322 316.613 444.459 315.852C436.597 315.092 429.606 320.85 428.846 328.714Z" fill="#DBDBDB"/>
<path d="M452.114 389.136L542.249 397.85L503.087 332.406L452.114 389.136Z" fill="#DBDBDB"/>
<path d="M416.779 385.749L491.195 392.944L457.833 349.567L416.779 385.749Z" fill="#EBEBEB"/>
<path d="M138 379.448L280.698 393.244L289.819 297.795L147.122 284L138 379.448Z" fill="#EBEBEB"/>
<path d="M144.497 374.078L275.349 386.729L283.321 303.166L152.47 290.515L144.497 374.078Z" fill="white"/>
<path d="M161.846 317.714C161.086 325.577 166.843 332.567 174.706 333.327C182.569 334.087 189.56 328.329 190.32 320.466C191.08 312.603 185.322 305.613 177.459 304.852C169.597 304.092 162.606 309.85 161.846 317.714Z" fill="#DBDBDB"/>
<path d="M185.114 378.136L275.249 386.85L236.087 321.406L185.114 378.136Z" fill="#DBDBDB"/>
<path d="M149.779 374.749L224.195 381.944L190.833 338.567L149.779 374.749Z" fill="#EBEBEB"/>
<path d="M263.82 328.188L481.828 313.108L474.74 170.391L256.732 185.471L263.82 328.188Z" fill="#EBEBEB"/>
<path d="M272.438 318.673L472.348 304.847L466.121 179.905L266.212 193.733L272.438 318.673Z" fill="white"/>
<path d="M286.275 231.431C286.845 243.19 297.046 252.049 309.059 251.218C321.072 250.387 330.348 240.18 329.777 228.422C329.207 216.663 319.006 207.804 306.993 208.635C294.979 209.465 285.703 219.671 286.275 231.431Z" fill="#DBDBDB"/>
<path d="M334.519 314.575L472.223 305.049L398.936 218.458L334.519 314.575Z" fill="#DBDBDB"/>
<path d="M280.542 318.352L394.231 310.487L334.5 254.93L280.542 318.352Z" fill="#EBEBEB"/>
</svg>
